<?xml version="1.0" encoding="UTF-8"?><svg id="Layer_2" xmlns="http://www.w3.org/2000/svg" viewBox="0 0 538.79 585.11"><defs><style>.cls-1{fill:#fff;}.cls-1,.cls-2{stroke-width:0px;}.cls-2{fill:#475569;}</style></defs><g id="shield"><path class="cls-2" d="m12.68,92.46C5.23,96.02-.46,105.67.03,113.9l17.79,301.41L205.62.19,12.68,92.46Z"/><path class="cls-2" d="m526.15,92.46L332.8,0l187.48,414.13,18.48-300.23c.51-8.23-5.17-17.88-12.61-21.44Z"/><path class="cls-2" d="m382.22,433.76h-224.66l-28.68,71.48-.54,1.52,128.24,75.21c7.12,4.17,18.77,4.18,25.89.02l129.11-75.52-29.36-72.71Z"/></g><g id="pillar"><path class="cls-1" d="m207.58,500.33c-9.94,0-18-8.06-18-18v-243.34c0-9.94,8.06-18,18-18s18,8.06,18,18v243.34c0,9.94-8.06,18-18,18Z"/><path class="cls-1" d="m332.8,500.33c-9.94,0-18-8.06-18-18v-243.34c0-9.94,8.06-18,18-18s18,8.06,18,18v243.34c0,9.94-8.06,18-18,18Z"/><path class="cls-1" d="m269.96,533c-9.94,0-18-8.06-18-18V238.99c0-9.94,8.06-18,18-18s18,8.06,18,18v276.01c0,9.94-8.06,18-18,18Z"/><path class="cls-1" d="m360.34,72.9c-26.32,0-49.78,16.71-58.37,41.58-3.25,9.4,1.74,19.65,11.13,22.89,9.4,3.25,19.65-1.74,22.89-11.13,3.58-10.37,13.37-17.33,24.35-17.33,14.2,0,25.75,11.55,25.75,25.75s-11.55,25.75-25.75,25.75h-179.96c-14.2,0-25.75-11.55-25.75-25.75s11.55-25.75,25.75-25.75c10.98,0,20.76,6.97,24.35,17.33,3.25,9.4,13.5,14.38,22.89,11.13,9.4-3.25,14.38-13.5,11.13-22.89-8.59-24.87-32.05-41.57-58.37-41.57-2.87,0-5.69.21-8.46.59l-43.05,95.16c11.06,16.7,30.02,27.74,51.51,27.74h179.96c34.05,0,61.75-27.7,61.75-61.75s-27.7-61.75-61.75-61.75Z"/></g></svg>